<svg width="20" height="21" viewBox="0 0 20 21" fill="none" xmlns="http://www.w3.org/2000/svg">
<rect y="0.154297" width="20" height="20.1626" rx="5" fill="#FFFCE3"/>
<path d="M12.3579 5.021C12.4995 5.00839 12.6424 5.01435 12.7827 5.03955L12.8911 5.06396C13.138 5.13026 13.3407 5.26252 13.521 5.40967C13.7187 5.57106 13.9377 5.79217 14.186 6.04248L14.5278 6.39209C14.6324 6.50188 14.7262 6.60535 14.8052 6.70361C14.9698 6.90842 15.1143 7.14161 15.1665 7.43506L15.1851 7.57471C15.1933 7.66828 15.1933 7.76239 15.1851 7.85596L15.1665 7.99463C15.1143 8.28817 14.9698 8.52219 14.8052 8.72705C14.7262 8.82533 14.6324 8.92878 14.5278 9.03857L14.186 9.38721L8.31787 15.3042C8.18879 15.4343 8.0656 15.5621 7.92529 15.6675L7.77783 15.7642C7.57704 15.8786 7.35505 15.9299 7.12451 15.9878L7.12549 15.9888L7.11572 15.9917L7.10693 15.9937L5.12158 16.4946C4.96075 16.5352 4.77338 16.5834 4.61572 16.5991C4.47125 16.6135 4.22395 16.615 4.00244 16.4536L3.90967 16.3745C3.66818 16.1339 3.66537 15.8347 3.68115 15.6694C3.69628 15.5117 3.74474 15.3236 3.78467 15.1626L4.28467 13.147L4.37549 12.8022C4.40997 12.6905 4.4516 12.5826 4.50928 12.48L4.60498 12.3335C4.70852 12.1937 4.83445 12.0709 4.9624 11.9419L10.814 6.04248L11.1655 5.69287C11.276 5.58601 11.3801 5.49036 11.479 5.40967C11.685 5.24154 11.9203 5.09288 12.2173 5.03955L12.3579 5.021Z" stroke="#33363F" stroke-width="1.2"/>
<path d="M10.4165 6.45508L13.7498 9.81551" stroke="black" stroke-opacity="0.58"/>
</svg>
