<svg width="20" height="21" viewBox="0 0 20 21" fill="none" xmlns="http://www.w3.org/2000/svg">
<path d="M12.9165 9.36719L10.4165 11.8672L8.74984 10.2005L6.24984 12.7005" stroke="#33363F" stroke-linecap="round" stroke-linejoin="round"/>
<path d="M12.0833 4.36719H6.95C5.82989 4.36719 5.26984 4.36719 4.84202 4.58517C4.46569 4.77692 4.15973 5.08288 3.96799 5.45921C3.75 5.88703 3.75 6.44708 3.75 7.56719V13.6672C3.75 14.7873 3.75 15.3473 3.96799 15.7752C4.15973 16.1515 4.46569 16.4575 4.84202 16.6492C5.26984 16.8672 5.82989 16.8672 6.95 16.8672H13.05C14.1701 16.8672 14.7302 16.8672 15.158 16.6492C15.5343 16.4575 15.8403 16.1515 16.032 15.7752C16.25 15.3473 16.25 14.7873 16.25 13.6672V8.53385" stroke="#33363F" stroke-linecap="round"/>
<circle cx="15.4168" cy="5.20052" r="1.58333" stroke="#33363F" stroke-linecap="round"/>
</svg>
