<svg width="20" height="21" viewBox="0 0 20 21" fill="none" xmlns="http://www.w3.org/2000/svg">
<path d="M8.75016 6.86719L10.4168 9.36719L8.75016 11.8672H6.25016L4.5835 9.36719L6.25016 6.86719H8.75016Z" stroke="#222222" stroke-linecap="round" stroke-linejoin="round"/>
<path d="M12.9167 4.36719L14.5833 6.86719L12.9167 9.36719H10.4167L8.75 6.86719L10.4167 4.36719H12.9167Z" stroke="#222222" stroke-linecap="round" stroke-linejoin="round"/>
<path d="M12.9165 14.3672L14.5832 16.8672" stroke="#222222" stroke-linecap="round" stroke-linejoin="round"/>
<path d="M4.5835 4.36719L6.25016 6.86719" stroke="#222222" stroke-linecap="round" stroke-linejoin="round"/>
<path d="M10.4168 14.3672L9.5835 15.6172" stroke="#222222" stroke-linecap="round" stroke-linejoin="round"/>
<path d="M6.24984 11.8672L5.4165 13.1172" stroke="#222222" stroke-linecap="round" stroke-linejoin="round"/>
<path d="M4.58333 9.36719H3.75" stroke="#222222" stroke-linecap="round" stroke-linejoin="round"/>
<path d="M14.5835 11.8672H17.0835" stroke="#222222" stroke-linecap="round" stroke-linejoin="round"/>
<path d="M12.9167 9.36719L14.5833 11.8672L12.9167 14.3672H10.4167L8.75 11.8672L10.4167 9.36719H12.9167Z" stroke="#222222" stroke-linecap="round" stroke-linejoin="round"/>
<circle cx="8.75016" cy="16.8673" r="0.416667" fill="#222222"/>
<circle cx="4.58317" cy="14.3674" r="0.416667" fill="#222222"/>
<circle cx="2.08317" cy="9.36735" r="0.416667" fill="#222222"/>
</svg>
