<svg width="24" height="24" viewBox="0 0 24 24" fill="none" xmlns="http://www.w3.org/2000/svg">
<circle cx="12" cy="8" r="2.5" stroke="#222222" stroke-linecap="round"/>
<path d="M13.7679 6.5C13.9657 6.15743 14.2607 5.88121 14.6154 5.70625C14.9702 5.5313 15.3689 5.46548 15.7611 5.51711C16.1532 5.56874 16.5213 5.73551 16.8187 5.99632C17.1161 6.25713 17.3295 6.60028 17.4319 6.98236C17.5342 7.36445 17.521 7.76831 17.3939 8.14288C17.2667 8.51745 17.0313 8.8459 16.7175 9.08671C16.4037 9.32751 16.0255 9.46985 15.6308 9.49572C15.2361 9.52159 14.8426 9.42983 14.5 9.23205" stroke="#222222"/>
<path d="M10.2321 6.5C10.0343 6.15743 9.73935 5.88121 9.38458 5.70625C9.02981 5.5313 8.63113 5.46548 8.23895 5.51711C7.84677 5.56874 7.47871 5.73551 7.18131 5.99632C6.88391 6.25713 6.67053 6.60028 6.56815 6.98236C6.46577 7.36445 6.47899 7.76831 6.60614 8.14288C6.73329 8.51745 6.96866 8.8459 7.28248 9.08671C7.5963 9.32751 7.97448 9.46985 8.36919 9.49572C8.76391 9.52159 9.15743 9.42983 9.5 9.23205" stroke="#222222"/>
<path d="M12 12.5C16.0802 12.5 17.1335 15.8022 17.4054 17.507C17.4924 18.0524 17.0523 18.5 16.5 18.5H7.5C6.94771 18.5 6.50763 18.0524 6.59461 17.507C6.86649 15.8022 7.91976 12.5 12 12.5Z" stroke="#222222" stroke-linecap="round"/>
<path d="M15.5 11.5L15.5 11H15.5V11.5ZM19.2959 15.416L19.7809 15.2946L19.7809 15.2945L19.2959 15.416ZM17.1797 16.5L16.6994 16.639L16.8039 17H17.1797V16.5ZM13.0869 12.5859L12.7177 12.2488L12.0972 12.9283L13.0049 13.0792L13.0869 12.5859ZM15.5 11.5L15.5 12C16.5275 12 17.2492 12.5026 17.7778 13.2068C18.3171 13.9251 18.6338 14.8303 18.8109 15.5375L19.2959 15.416L19.7809 15.2945C19.5898 14.5313 19.2323 13.4785 18.5776 12.6065C17.9123 11.7203 16.9201 11.0001 15.5 11L15.5 11.5ZM19.2959 15.416L18.8109 15.5375C18.8647 15.7526 18.7067 16 18.3945 16V16.5V17C19.2656 17 20.0145 16.2272 19.7809 15.2946L19.2959 15.416ZM18.3945 16.5V16H17.1797V16.5V17H18.3945V16.5ZM17.1797 16.5L17.66 16.361C17.1889 14.7329 16.0187 12.5663 13.1689 12.0927L13.0869 12.5859L13.0049 13.0792C15.3051 13.4614 16.2772 15.1799 16.6994 16.639L17.1797 16.5ZM13.0869 12.5859L13.4562 12.9231C13.9565 12.3751 14.6106 12 15.5 12V11.5V11C14.2828 11 13.3734 11.5306 12.7177 12.2488L13.0869 12.5859Z" fill="#222222"/>
<path d="M8.50043 11.5L8.5005 11H8.50043V11.5ZM10.9116 12.5859L10.9936 13.0792L11.9013 12.9281L11.2807 12.2487L10.9116 12.5859ZM6.82075 16.5V17H7.19657L7.30104 16.639L6.82075 16.5ZM5.60493 16.5L5.60492 17H5.60493V16.5ZM4.70356 15.416L4.21854 15.2945L4.21854 15.2946L4.70356 15.416ZM8.50043 11.5L8.50037 12C9.38885 12.0001 10.0419 12.3752 10.5424 12.9231L10.9116 12.5859L11.2807 12.2487C10.6255 11.5313 9.7174 11.0002 8.5005 11L8.50043 11.5ZM10.9116 12.5859L10.8295 12.0927C7.98059 12.5668 6.81148 14.7334 6.34045 16.361L6.82075 16.5L7.30104 16.639C7.72325 15.18 8.69457 13.4617 10.9936 13.0792L10.9116 12.5859ZM6.82075 16.5V16H5.60493V16.5V17H6.82075V16.5ZM5.60493 16.5L5.60494 16C5.29272 16 5.13471 15.7526 5.18858 15.5375L4.70356 15.416L4.21854 15.2946C3.98497 16.2272 4.73391 17 5.60492 17L5.60493 16.5ZM4.70356 15.416L5.18858 15.5375C5.36568 14.8304 5.68252 13.9252 6.22199 13.2069C6.75089 12.5026 7.47275 12 8.50043 12V11.5V11C7.08034 11 6.08791 11.7202 5.42238 12.6063C4.76742 13.4784 4.40972 14.5312 4.21854 15.2945L4.70356 15.416Z" fill="#222222"/>
</svg>
