<svg width="20" height="21" viewBox="0 0 20 21" fill="none" xmlns="http://www.w3.org/2000/svg">
<circle cx="10" cy="7.28369" r="2" stroke="#222222" stroke-linecap="round"/>
<path d="M11.5456 6.07536C11.7022 5.80416 11.9357 5.58548 12.2165 5.44698C12.4974 5.30847 12.813 5.25636 13.1235 5.29724C13.434 5.33811 13.7254 5.47014 13.9608 5.67661C14.1962 5.88309 14.3652 6.15474 14.4462 6.45723C14.5273 6.75971 14.5168 7.07944 14.4161 7.37597C14.3155 7.67251 14.1291 7.93253 13.8807 8.12317C13.6323 8.3138 13.3329 8.42649 13.0204 8.44697C12.7079 8.46745 12.3964 8.39481 12.1252 8.23823" stroke="#2A4157" stroke-opacity="0.24"/>
<path d="M8.45438 6.07536C8.2978 5.80416 8.06432 5.58548 7.78346 5.44698C7.5026 5.30847 7.18698 5.25636 6.8765 5.29724C6.56603 5.33811 6.27465 5.47014 6.03921 5.67661C5.80376 5.88309 5.63484 6.15474 5.55379 6.45723C5.47274 6.75971 5.4832 7.07944 5.58386 7.37597C5.68452 7.67251 5.87086 7.93253 6.1193 8.12317C6.36774 8.3138 6.66713 8.42649 6.97962 8.44697C7.2921 8.46745 7.60364 8.39481 7.87484 8.23823" stroke="#2A4157" stroke-opacity="0.24"/>
<path d="M12.916 10.2002V9.7002H12.9159L12.916 10.2002ZM16.0332 13.2861L16.5153 13.1537L16.5153 13.1535L16.0332 13.2861ZM14.3154 14.3672L13.8351 14.5062L13.9396 14.8672H14.3154V14.3672ZM10.9072 11.1074L10.5379 10.7703L9.91797 11.4495L10.8251 11.6006L10.9072 11.1074ZM12.916 10.2002V10.7002C13.7026 10.7002 14.2637 11.0652 14.6857 11.5926C15.1189 12.1339 15.3895 12.8313 15.5511 13.4188L16.0332 13.2861L16.5153 13.1535C16.3372 12.5064 16.0211 11.6608 15.4665 10.9678C14.9008 10.2609 14.0732 9.7002 12.916 9.7002V10.2002ZM16.0332 13.2861L15.5511 13.4186C15.5834 13.5363 15.5548 13.6381 15.4872 13.7182C15.416 13.8026 15.2954 13.8672 15.1445 13.8672V14.3672V14.8672C16.0109 14.8672 16.7736 14.0935 16.5153 13.1537L16.0332 13.2861ZM15.1445 14.3672V13.8672H14.3154V14.3672V14.8672H15.1445V14.3672ZM14.3154 14.3672L14.7957 14.2282C14.3991 12.8576 13.4084 11.0171 10.9894 10.6142L10.9072 11.1074L10.8251 11.6006C12.6948 11.9121 13.4875 13.3049 13.8351 14.5062L14.3154 14.3672ZM10.9072 11.1074L11.2765 11.4445C11.6814 11.0009 12.2035 10.7003 12.9161 10.7002L12.916 10.2002L12.9159 9.7002C11.8731 9.70036 11.0963 10.1586 10.5379 10.7703L10.9072 11.1074Z" fill="#2A4157" fill-opacity="0.24"/>
<path d="M7.08344 10.2002V9.7002H7.08342L7.08344 10.2002ZM9.09223 11.1074L9.17443 11.6006L10.0815 11.4494L9.46148 10.7703L9.09223 11.1074ZM5.68402 14.3672V14.8672H6.05985L6.16432 14.5062L5.68402 14.3672ZM4.85492 14.3672L4.8548 14.8672H4.85492V14.3672ZM3.96625 13.2861L3.48417 13.1535L3.4841 13.1537L3.96625 13.2861ZM7.08344 10.2002V10.7002C7.79592 10.7002 8.3179 11.0009 8.72297 11.4445L9.09223 11.1074L9.46148 10.7703C8.90315 10.1588 8.12648 9.7002 7.08344 9.7002V10.2002ZM9.09223 11.1074L9.01002 10.6142C6.59137 11.0174 5.60035 12.8576 5.20373 14.2282L5.68402 14.3672L6.16432 14.5062C6.5119 13.3051 7.30489 11.9122 9.17443 11.6006L9.09223 11.1074ZM5.68402 14.3672V13.8672H4.85492V14.3672V14.8672H5.68402V14.3672ZM4.85492 14.3672L4.85505 13.8672C4.70426 13.8671 4.58363 13.8026 4.51234 13.718C4.44473 13.6379 4.41612 13.5361 4.4484 13.4185L3.96625 13.2861L3.4841 13.1537C3.22606 14.0934 3.98876 14.867 4.8548 14.8672L4.85492 14.3672ZM3.96625 13.2861L4.44833 13.4188C4.60998 12.8313 4.88057 12.1339 5.31373 11.5926C5.73577 11.0652 6.29687 10.7002 7.08345 10.7002L7.08344 10.2002L7.08342 9.7002C5.92627 9.70023 5.09864 10.2609 4.53295 10.9678C3.97838 11.6608 3.66224 12.5064 3.48417 13.1535L3.96625 13.2861Z" fill="#2A4157" fill-opacity="0.24"/>
<path d="M9.99984 11.0337C13.2728 11.0337 14.2085 13.5834 14.4761 15.0413C14.5757 15.5845 14.1355 16.0337 13.5832 16.0337H6.41651C5.86422 16.0337 5.42393 15.5845 5.52361 15.0413C5.79113 13.5834 6.72686 11.0337 9.99984 11.0337Z" stroke="#222222" stroke-linecap="round"/>
</svg>
