<svg width="24" height="24" viewBox="0 0 24 24" fill="none" xmlns="http://www.w3.org/2000/svg">
<path d="M20.638 14.136L20.588 13.639L20.573 13.64L20.556 13.643L20.638 14.136ZM20.638 14.136L20.688 14.634L20.705 14.632L20.721 14.629L20.638 14.136ZM16.598 19.618L16.915 19.231L16.91 19.228L16.598 19.618ZM16.598 19.618L16.281 20.005L16.286 20.009L16.598 19.618ZM7.402 19.618L7.085 19.232L7.078 19.238L7.07 19.245L7.402 19.618ZM7.402 19.618L7.719 20.006L7.727 19.999L7.734 19.993L7.402 19.618ZM3.361 9.86398V9.36398H3.337L3.312 9.36598L3.361 9.86398ZM3.361 9.86398V10.364H3.386L3.411 10.361L3.361 9.86398ZM14.632 3.31098C14.6172 3.12965 14.5962 2.94887 14.569 2.76898C14.5465 2.60968 14.4986 2.45504 14.427 2.31098L13.538 2.76998C13.548 2.78998 13.565 2.82998 13.582 2.93398C13.601 3.04398 13.615 3.18698 13.638 3.40998L14.632 3.31098ZM14.828 4.51398C14.816 4.49898 14.78 4.43798 14.741 4.22398C14.6942 3.92101 14.6592 3.61649 14.634 3.31098L13.638 3.40998C13.678 3.81098 13.711 4.14298 13.757 4.40098C13.802 4.65298 13.872 4.90998 14.033 5.12098L14.828 4.51398ZM15.292 4.70598C15.2046 4.71774 15.1156 4.70617 15.0341 4.67245C14.9527 4.63873 14.8815 4.58406 14.828 4.51398L14.032 5.11998C14.1926 5.33056 14.4061 5.49488 14.6507 5.59622C14.8954 5.69757 15.1625 5.73233 15.425 5.69698L15.292 4.70598ZM16.28 3.99298C15.955 4.25998 15.733 4.44098 15.558 4.56198C15.379 4.68598 15.31 4.70298 15.292 4.70598L15.425 5.69698C15.687 5.66198 15.918 5.52998 16.129 5.38298C16.344 5.23298 16.601 5.02298 16.914 4.76698L16.28 3.99298ZM17.132 3.43198C16.972 3.48298 16.837 3.56398 16.709 3.65498C16.585 3.74298 16.444 3.85898 16.28 3.99298L16.914 4.76698C17.087 4.62498 17.199 4.53398 17.289 4.46998C17.334 4.43438 17.3838 4.40542 17.437 4.38398L17.132 3.43198ZM18.185 3.48398C17.8519 3.3398 17.4777 3.32132 17.132 3.43198L17.437 4.38398C17.552 4.34755 17.6763 4.35395 17.787 4.40198L18.185 3.48398ZM18.977 4.12798C18.827 3.97798 18.698 3.84798 18.584 3.74798C18.466 3.6392 18.3313 3.55006 18.185 3.48398L17.787 4.40198C17.808 4.41098 17.846 4.43198 17.926 4.50198C18.009 4.57398 18.111 4.67598 18.27 4.83498L18.977 4.12798ZM19.87 5.02098L18.977 4.12798L18.27 4.83498L19.163 5.72798L19.87 5.02098ZM20.514 5.81298C20.4476 5.66664 20.3581 5.53192 20.249 5.41398C20.149 5.29998 20.019 5.17098 19.87 5.02098L19.163 5.72798C19.322 5.88698 19.423 5.98898 19.497 6.07198C19.567 6.15198 19.587 6.18998 19.596 6.21098L20.514 5.81298ZM20.566 6.86598C20.6767 6.52025 20.6582 6.14612 20.514 5.81298L19.596 6.21098C19.6437 6.32177 19.6497 6.44608 19.613 6.56098L20.566 6.86598ZM20.005 7.71798C20.139 7.55398 20.255 7.41298 20.343 7.28898C20.433 7.16098 20.515 7.02598 20.566 6.86598L19.613 6.56098C19.5919 6.61411 19.5632 6.66395 19.528 6.70898C19.4328 6.83691 19.3337 6.96197 19.231 7.08398L20.005 7.71798ZM19.292 8.70598C19.295 8.68798 19.312 8.61898 19.436 8.43998C19.557 8.26498 19.738 8.04298 20.005 7.71798L19.231 7.08398C18.975 7.39698 18.764 7.65398 18.615 7.86898C18.468 8.07898 18.336 8.31098 18.301 8.57298L19.292 8.70598ZM19.484 9.16998C19.4139 9.11644 19.3592 9.04532 19.3255 8.96383C19.2918 8.88234 19.2802 8.79338 19.292 8.70598L18.301 8.57298C18.2658 8.83528 18.3007 9.10221 18.402 9.34669C18.5034 9.59116 18.6676 9.80448 18.878 9.96498L19.484 9.16998ZM20.687 9.36498C20.268 9.32298 19.984 9.29498 19.774 9.25698C19.56 9.21798 19.499 9.18198 19.484 9.16998L18.878 9.96498C19.088 10.125 19.345 10.195 19.598 10.241C19.855 10.287 20.186 10.321 20.588 10.361L20.687 9.36498ZM21.687 9.57098C21.5429 9.49939 21.3883 9.45144 21.229 9.42898C21.079 9.40398 20.897 9.38598 20.687 9.36498L20.587 10.36C20.811 10.383 20.954 10.397 21.064 10.416C21.1205 10.4228 21.1757 10.4376 21.228 10.46L21.687 9.57098ZM22.394 10.352C22.2605 10.0147 22.0093 9.73727 21.687 9.57098L21.228 10.46C21.3355 10.5153 21.4194 10.6076 21.464 10.72L22.394 10.352ZM22.499 11.367C22.499 11.156 22.499 10.973 22.489 10.821C22.4826 10.6606 22.4506 10.5022 22.394 10.352L21.464 10.72C21.472 10.741 21.484 10.783 21.491 10.888C21.4985 11.0479 21.5011 11.2079 21.499 11.368L22.499 11.367ZM22.499 12.631V11.367H21.499V12.631H22.499ZM22.394 13.645C22.456 13.489 22.479 13.333 22.489 13.176C22.499 13.025 22.499 12.842 22.499 12.631H21.499C21.499 12.855 21.499 12.999 21.491 13.11C21.49 13.167 21.4809 13.2235 21.464 13.278L22.394 13.645ZM21.687 14.427C22.0095 14.2604 22.2607 13.9826 22.394 13.645L21.464 13.278C21.4194 13.3903 21.3355 13.4827 21.228 13.538L21.687 14.427ZM20.687 14.633C20.897 14.612 21.08 14.593 21.229 14.568C21.384 14.543 21.537 14.504 21.686 14.428L21.228 13.538C21.1757 13.5603 21.1205 13.5752 21.064 13.582C20.954 13.601 20.811 13.615 20.588 13.638L20.687 14.633ZM19.485 14.828C19.5 14.816 19.561 14.779 19.775 14.741C19.985 14.703 20.269 14.674 20.687 14.633L20.588 13.638C20.187 13.678 19.855 13.71 19.597 13.757C19.345 13.802 19.089 13.872 18.878 14.032L19.485 14.828ZM19.292 15.292C19.2804 15.2045 19.2921 15.1155 19.326 15.034C19.3599 14.9525 19.4147 14.8814 19.485 14.828L18.878 14.032C18.6674 14.1926 18.5031 14.406 18.4018 14.6507C18.3004 14.8954 18.2656 15.1625 18.301 15.425L19.292 15.292ZM20.005 16.28C19.8069 16.0461 19.6171 15.8053 19.436 15.558C19.312 15.38 19.295 15.31 19.292 15.292L18.302 15.426C18.337 15.688 18.469 15.918 18.615 16.129C18.765 16.343 18.975 16.601 19.231 16.913L20.005 16.28ZM20.566 17.132C20.5149 16.9796 20.4396 16.8365 20.343 16.708C20.2347 16.5619 20.122 16.4192 20.005 16.28L19.231 16.913C19.373 17.087 19.464 17.198 19.528 17.289C19.5632 17.3337 19.5918 17.3832 19.613 17.436L20.566 17.132ZM20.514 18.185C20.6582 17.8518 20.6767 17.4777 20.566 17.132L19.613 17.436C19.65 17.5512 19.6439 17.6759 19.596 17.787L20.514 18.185ZM19.871 18.976C20.02 18.827 20.149 18.698 20.249 18.584C20.353 18.465 20.447 18.34 20.514 18.185L19.596 17.787C19.5694 17.8375 19.5357 17.884 19.496 17.925C19.3885 18.0429 19.2774 18.1577 19.163 18.269L19.871 18.976ZM18.977 19.87L19.871 18.976L19.163 18.269L18.27 19.163L18.977 19.87ZM18.185 20.513C18.339 20.446 18.465 20.353 18.584 20.249C18.698 20.149 18.827 20.019 18.977 19.869L18.27 19.163C18.111 19.322 18.009 19.423 17.926 19.496C17.8847 19.5358 17.8379 19.5695 17.787 19.596L18.185 20.513ZM17.132 20.566C17.4778 20.6763 17.852 20.6575 18.185 20.513L17.787 19.596C17.6762 19.6437 17.5519 19.6497 17.437 19.613L17.132 20.566ZM16.28 20.004C16.444 20.138 16.585 20.254 16.709 20.342C16.837 20.433 16.972 20.515 17.132 20.566L17.437 19.613C17.3839 19.5918 17.334 19.5632 17.289 19.528C17.1611 19.4324 17.036 19.333 16.914 19.23L16.28 20.004ZM15.292 19.292C15.31 19.294 15.38 19.312 15.558 19.436C15.733 19.557 15.955 19.738 16.28 20.004L16.914 19.23C16.601 18.975 16.344 18.764 16.129 18.614C15.919 18.468 15.687 18.336 15.425 18.301L15.292 19.292ZM14.828 19.484C14.8815 19.4139 14.9527 19.3592 15.0341 19.3255C15.1156 19.2918 15.2046 19.2802 15.292 19.292L15.425 18.301C15.1628 18.2657 14.8959 18.3004 14.6514 18.4016C14.407 18.5027 14.1936 18.6667 14.033 18.877L14.828 19.484ZM14.633 20.687C14.675 20.268 14.703 19.984 14.741 19.774C14.78 19.56 14.816 19.499 14.828 19.484L14.033 18.877C13.873 19.087 13.803 19.345 13.757 19.597C13.711 19.854 13.677 20.185 13.637 20.587L14.633 20.687ZM14.427 21.687C14.504 21.537 14.542 21.384 14.568 21.229C14.594 21.079 14.612 20.897 14.633 20.687L13.637 20.587C13.6231 20.7465 13.6054 20.9056 13.582 21.064C13.5752 21.1205 13.5604 21.1757 13.538 21.228L14.427 21.687ZM13.646 22.394C13.9832 22.2605 14.2607 22.0093 14.427 21.687L13.538 21.228C13.4827 21.3355 13.3903 21.4193 13.278 21.464L13.646 22.394ZM12.631 22.499C12.842 22.499 13.025 22.499 13.177 22.489C13.333 22.479 13.49 22.456 13.646 22.394L13.278 21.464C13.2236 21.4809 13.167 21.49 13.11 21.491C13 21.499 12.855 21.499 12.63 21.499L12.631 22.499ZM11.367 22.499H12.631L12.63 21.499H11.367V22.499ZM10.352 22.394C10.509 22.456 10.665 22.479 10.822 22.489C10.973 22.499 11.156 22.499 11.367 22.499V21.499C11.143 21.499 10.999 21.499 10.888 21.491C10.831 21.49 10.7744 21.4809 10.72 21.464L10.352 22.394ZM9.571 21.687C9.73729 22.0093 10.0148 22.2605 10.352 22.394L10.72 21.464C10.6077 21.4193 10.5153 21.3355 10.46 21.228L9.571 21.687ZM9.365 20.687C9.385 20.8983 9.40633 21.079 9.429 21.229C9.455 21.384 9.494 21.537 9.571 21.687L10.46 21.228C10.4376 21.1757 10.4228 21.1205 10.416 21.064C10.3926 20.9059 10.3739 20.7472 10.36 20.588L9.365 20.687ZM9.17 19.484C9.182 19.499 9.218 19.56 9.257 19.774C9.295 19.984 9.323 20.269 9.365 20.687L10.36 20.588C10.32 20.187 10.287 19.855 10.241 19.597C10.196 19.345 10.126 19.088 9.965 18.877L9.17 19.484ZM8.706 19.292C8.7934 19.2802 8.88236 19.2918 8.96385 19.3255C9.04534 19.3592 9.11646 19.4139 9.17 19.484L9.965 18.877C9.8045 18.6666 9.59119 18.5033 9.34671 18.402C9.10223 18.3007 8.8353 18.2658 8.573 18.301L8.706 19.292ZM7.718 20.005C8.043 19.738 8.265 19.557 8.44 19.436C8.619 19.312 8.688 19.294 8.706 19.292L8.573 18.301C8.311 18.336 8.08 18.468 7.869 18.615C7.654 18.764 7.397 18.975 7.084 19.231L7.718 20.005ZM6.866 20.566C7.026 20.515 7.161 20.434 7.289 20.343C7.413 20.255 7.554 20.139 7.718 20.005L7.084 19.231C6.96199 19.3337 6.83693 19.4327 6.709 19.528C6.66397 19.5632 6.61413 19.5918 6.561 19.613L6.866 20.566ZM5.813 20.515C6.14614 20.6592 6.52027 20.6766 6.866 20.566L6.561 19.613C6.4461 19.6497 6.3218 19.6437 6.211 19.596L5.813 20.515ZM5.021 19.87C5.171 20.02 5.3 20.15 5.414 20.25C5.532 20.353 5.659 20.448 5.813 20.515L6.211 19.596C6.16012 19.5695 6.11331 19.5358 6.072 19.496C5.95404 19.3884 5.83932 19.2774 5.728 19.163L5.021 19.87ZM4.128 18.977L5.021 19.87L5.728 19.163L4.835 18.27L4.128 18.977ZM3.484 18.185C3.551 18.339 3.645 18.465 3.749 18.584C3.849 18.698 3.979 18.827 4.128 18.977L4.835 18.27C4.72025 18.1587 4.60887 18.044 4.501 17.926C4.46119 17.8847 4.42752 17.8379 4.401 17.787L3.484 18.185ZM3.432 17.132C3.32135 17.4777 3.33982 17.8518 3.484 18.185L4.401 17.787C4.35297 17.6763 4.34758 17.552 4.384 17.437L3.432 17.132ZM3.993 16.28C3.859 16.444 3.743 16.585 3.655 16.709C3.55853 16.8371 3.48324 16.98 3.432 17.132L4.384 17.437C4.40545 17.3838 4.43441 17.3339 4.47 17.289C4.534 17.199 4.625 17.087 4.767 16.914L3.993 16.28ZM4.706 15.292C4.703 15.31 4.686 15.379 4.562 15.558C4.44 15.733 4.26 15.955 3.993 16.28L4.767 16.914C5.023 16.601 5.234 16.344 5.383 16.129C5.53 15.919 5.662 15.687 5.697 15.425L4.706 15.292ZM4.514 14.828C4.58408 14.8815 4.63875 14.9526 4.67247 15.0341C4.70619 15.1156 4.71776 15.2046 4.706 15.292L5.697 15.425C5.73217 15.1627 5.69732 14.8957 5.59598 14.6513C5.49464 14.4068 5.33042 14.1935 5.12 14.033L4.514 14.828ZM3.311 14.634C3.73 14.675 4.014 14.703 4.224 14.741C4.438 14.78 4.499 14.816 4.514 14.828L5.12 14.032C4.91 13.872 4.653 13.802 4.4 13.757C4.143 13.711 3.812 13.677 3.41 13.637L3.311 14.634ZM2.311 14.427C2.461 14.504 2.614 14.542 2.769 14.568C2.919 14.594 3.1 14.613 3.311 14.634L3.411 13.638C3.25148 13.6241 3.0924 13.6054 2.934 13.582C2.87752 13.5752 2.8223 13.5603 2.77 13.538L2.311 14.427ZM1.604 13.645C1.73729 13.9826 1.98848 14.2604 2.311 14.427L2.77 13.538C2.66249 13.4827 2.57865 13.3903 2.534 13.278L1.604 13.645ZM1.5 12.633C1.5 12.844 1.5 13.027 1.51 13.179C1.51647 13.339 1.54854 13.4971 1.605 13.647L2.535 13.28C2.51806 13.2255 2.50897 13.169 2.508 13.112C2.50053 12.9521 2.49786 12.792 2.5 12.632L1.5 12.633ZM1.5 11.369V12.633H2.5V11.369H1.5ZM1.605 10.354C1.54834 10.5045 1.51626 10.6632 1.51 10.824C1.5 10.975 1.5 11.158 1.5 11.369H2.5C2.5 11.145 2.5 11.001 2.508 10.89C2.50897 10.833 2.51806 10.7764 2.535 10.722L1.605 10.354ZM2.312 9.57298C1.98966 9.73927 1.73849 10.0167 1.605 10.354L2.535 10.722C2.57965 10.6096 2.66349 10.5173 2.771 10.462L2.312 9.57298ZM3.312 9.36598C3.10067 9.38598 2.92 9.40831 2.77 9.43098C2.61071 9.45344 2.45606 9.50139 2.312 9.57298L2.771 10.462C2.791 10.452 2.831 10.435 2.935 10.418C3.045 10.399 3.188 10.385 3.411 10.362L3.312 9.36598ZM4.515 9.17198C4.5 9.18398 4.439 9.21998 4.225 9.25898C4.015 9.29698 3.731 9.32398 3.312 9.36598L3.411 10.362C3.812 10.322 4.145 10.289 4.402 10.243C4.655 10.198 4.912 10.128 5.122 9.96698L4.515 9.17198ZM4.707 8.70798C4.71876 8.79538 4.70719 8.88434 4.67347 8.96583C4.63975 9.04732 4.58508 9.11844 4.515 9.17198L5.122 9.96698C5.33224 9.80636 5.49626 9.593 5.59742 9.34853C5.69858 9.10406 5.73328 8.83619 5.698 8.57398L4.707 8.70798ZM3.994 7.71898C4.261 8.04498 4.442 8.26698 4.564 8.44198C4.688 8.62098 4.704 8.68998 4.707 8.70798L5.698 8.57398C5.663 8.31198 5.531 8.08198 5.384 7.87098C5.235 7.65598 5.024 7.39898 4.768 7.08598L3.994 7.71898ZM3.433 6.86698C3.483 7.02698 3.565 7.16298 3.656 7.29098C3.744 7.41398 3.86 7.55598 3.994 7.71898L4.768 7.08598C4.66527 6.96364 4.56622 6.83825 4.471 6.70998C4.43549 6.66532 4.40653 6.61582 4.385 6.56298L3.433 6.86698ZM3.485 5.81498C3.34107 6.14783 3.3226 6.52155 3.433 6.86698L4.385 6.56298C4.34858 6.44796 4.35497 6.32365 4.403 6.21298L3.485 5.81498ZM4.129 5.02298C3.979 5.17198 3.849 5.30098 3.749 5.41598C3.64022 5.534 3.55109 5.66871 3.485 5.81498L4.403 6.21298C4.4296 6.16245 4.46327 6.11498 4.503 6.07398C4.61004 5.95555 4.72111 5.84081 4.836 5.72998L4.129 5.02298ZM5.022 4.12898L4.129 5.02298L4.836 5.72998L5.729 4.83598L5.022 4.12898ZM5.814 3.48598C5.66773 3.55206 5.53302 3.6412 5.415 3.74998C5.301 3.84998 5.171 3.97898 5.022 4.12898L5.729 4.83598C5.888 4.67798 5.99 4.57598 6.073 4.50298C6.153 4.43298 6.191 4.41298 6.212 4.40298L5.814 3.48598ZM6.867 3.43298C6.52115 3.32264 6.14702 3.34147 5.814 3.48598L6.212 4.40298C6.32267 4.35495 6.44698 4.34955 6.562 4.38598L6.867 3.43298ZM7.719 3.99498C7.555 3.86098 7.414 3.74498 7.29 3.65698C7.1619 3.56015 7.01908 3.48452 6.867 3.43298L6.562 4.38598C6.61513 4.40711 6.66497 4.43574 6.71 4.47098C6.8 4.53598 6.912 4.62698 7.086 4.76898L7.719 3.99498ZM8.707 4.70798C8.689 4.70498 8.62 4.68798 8.441 4.56398C8.19368 4.38255 7.95287 4.19343 7.719 3.99498L7.086 4.76898C7.398 5.02498 7.656 5.23598 7.87 5.38498C8.08 5.53098 8.312 5.66298 8.574 5.69898L8.707 4.70798ZM9.171 4.51498C9.11758 4.58524 9.04651 4.64011 8.96501 4.67401C8.88351 4.7079 8.79449 4.71962 8.707 4.70798L8.574 5.69898C8.83637 5.73444 9.10345 5.69883 9.34811 5.59767C9.59277 5.4965 9.8063 5.33238 9.967 5.12198L9.171 4.51498ZM9.366 3.31298C9.324 3.73098 9.296 4.01598 9.258 4.22498C9.219 4.43898 9.183 4.49998 9.171 4.51498L9.967 5.12198C10.127 4.91198 10.197 4.65498 10.242 4.40198C10.288 4.14498 10.322 3.81398 10.362 3.41198L9.366 3.31298ZM9.572 2.31298C9.495 2.46298 9.456 2.61598 9.43 2.77098C9.405 2.92098 9.387 3.10198 9.366 3.31298L10.361 3.41298C10.3749 3.25345 10.3936 3.09438 10.417 2.93598C10.4238 2.8795 10.4386 2.82428 10.461 2.77198L9.572 2.31298ZM10.354 1.60598C10.0162 1.73951 9.73835 1.99008 9.572 2.31298L10.461 2.77198C10.5163 2.66446 10.6087 2.58062 10.721 2.53598L10.354 1.60598ZM11.368 1.50098C11.157 1.50098 10.974 1.50098 10.822 1.51098C10.6619 1.51745 10.5039 1.54952 10.354 1.60598L10.721 2.53598C10.7754 2.51904 10.832 2.50995 10.889 2.50898C10.999 2.50098 11.144 2.50098 11.369 2.50098L11.368 1.50098ZM12.632 1.50098H11.368V2.50098H12.632V1.50098ZM13.647 1.60598C13.4964 1.54931 13.3377 1.51724 13.177 1.51098C13.026 1.50098 12.843 1.50098 12.632 1.50098V2.50098C12.856 2.50098 13 2.50098 13.111 2.50898C13.168 2.50995 13.2246 2.51904 13.279 2.53598L13.647 1.60598ZM14.428 2.31298C14.2615 1.99046 13.9836 1.73926 13.646 1.60598L13.279 2.53598C13.3913 2.58062 13.4837 2.66446 13.539 2.77198L14.428 2.31298ZM15.5 12C15.5 12.9282 15.1313 13.8185 14.4749 14.4748C13.8185 15.1312 12.9283 15.5 12 15.5V16.5C13.1935 16.5 14.3381 16.0259 15.182 15.182C16.0259 14.338 16.5 13.1934 16.5 12H15.5ZM12 8.49998C12.9283 8.49998 13.8185 8.86873 14.4749 9.5251C15.1313 10.1815 15.5 11.0717 15.5 12H16.5C16.5 10.8065 16.0259 9.66191 15.182 8.818C14.3381 7.97408 13.1935 7.49998 12 7.49998V8.49998ZM8.5 12C8.5 11.0717 8.86875 10.1815 9.52513 9.5251C10.1815 8.86873 11.0717 8.49998 12 8.49998V7.49998C10.8065 7.49998 9.66193 7.97408 8.81802 8.818C7.97411 9.66191 7.5 10.8065 7.5 12H8.5ZM12 15.5C11.0717 15.5 10.1815 15.1312 9.52513 14.4748C8.86875 13.8185 8.5 12.9282 8.5 12H7.5C7.5 13.1934 7.97411 14.338 8.81802 15.182C9.66193 16.0259 10.8065 16.5 12 16.5V15.5Z" fill="black"/>
</svg>
