<svg width="24" height="24" viewBox="0 0 24 24" fill="none" xmlns="http://www.w3.org/2000/svg">
<path d="M12 8.25C12.1989 8.25 12.3897 8.32902 12.5303 8.46967C12.671 8.61032 12.75 8.80109 12.75 9V9.354C12.9633 9.414 13.1647 9.498 13.354 9.606C13.4983 9.50989 13.6714 9.46672 13.8439 9.48382C14.0163 9.50093 14.1776 9.57726 14.3002 9.69983C14.4227 9.8224 14.4991 9.98365 14.5162 10.1561C14.5333 10.3286 14.4901 10.5017 14.394 10.646C14.5013 10.8347 14.5853 11.036 14.646 11.25H15C15.1989 11.25 15.3897 11.329 15.5303 11.4697C15.671 11.6103 15.75 11.8011 15.75 12C15.75 12.1989 15.671 12.3897 15.5303 12.5303C15.3897 12.671 15.1989 12.75 15 12.75H14.646C14.586 12.9633 14.502 13.1647 14.394 13.354C14.4901 13.4983 14.5333 13.6714 14.5162 13.8439C14.4991 14.0163 14.4227 14.1776 14.3002 14.3002C14.1776 14.4227 14.0163 14.4991 13.8439 14.5162C13.6714 14.5333 13.4983 14.4901 13.354 14.394C13.1636 14.5022 12.9608 14.5868 12.75 14.646V15C12.75 15.1989 12.671 15.3897 12.5303 15.5303C12.3897 15.671 12.1989 15.75 12 15.75C11.8011 15.75 11.6103 15.671 11.4697 15.5303C11.329 15.3897 11.25 15.1989 11.25 15V14.646C11.0392 14.5868 10.8364 14.5022 10.646 14.394C10.5017 14.4901 10.3286 14.5333 10.1561 14.5162C9.98365 14.4991 9.8224 14.4227 9.69983 14.3002C9.57726 14.1776 9.50093 14.0163 9.48382 13.8439C9.46672 13.6714 9.50989 13.4983 9.606 13.354C9.49782 13.1636 9.4132 12.9608 9.354 12.75H9C8.80109 12.75 8.61032 12.671 8.46967 12.5303C8.32902 12.3897 8.25 12.1989 8.25 12C8.25 11.8011 8.32902 11.6103 8.46967 11.4697C8.61032 11.329 8.80109 11.25 9 11.25H9.354C9.414 11.0367 9.498 10.8353 9.606 10.646C9.50989 10.5017 9.46672 10.3286 9.48382 10.1561C9.50093 9.98365 9.57726 9.8224 9.69983 9.69983C9.8224 9.57726 9.98365 9.50093 10.1561 9.48382C10.3286 9.46672 10.5017 9.50989 10.646 9.606C10.8347 9.49867 11.036 9.41467 11.25 9.354V9C11.25 8.80109 11.329 8.61032 11.4697 8.46967C11.6103 8.32902 11.8011 8.25 12 8.25ZM11.116 12.884C11.2318 13.0006 11.3695 13.0931 11.5212 13.1563C11.673 13.2194 11.8357 13.2519 12 13.2519C12.1643 13.2519 12.327 13.2194 12.4788 13.1563C12.6305 13.0931 12.7682 13.0006 12.884 12.884C13.0588 12.7092 13.1778 12.4864 13.226 12.244C13.2742 12.0015 13.2494 11.7502 13.1548 11.5218C13.0602 11.2934 12.9 11.0982 12.6944 10.9609C12.4889 10.8235 12.2472 10.7502 12 10.7502C11.7528 10.7502 11.5111 10.8235 11.3056 10.9609C11.1 11.0982 10.9398 11.2934 10.8452 11.5218C10.7506 11.7502 10.7258 12.0015 10.774 12.244C10.8222 12.4864 10.9412 12.7092 11.116 12.884Z" fill="black"/>
<path d="M6.5 12C6.5 10.5413 7.07946 9.14236 8.11091 8.11091C9.14236 7.07946 10.5413 6.5 12 6.5C13.4587 6.5 14.8576 7.07946 15.8891 8.11091C16.9205 9.14236 17.5 10.5413 17.5 12C17.5 13.4587 16.9205 14.8576 15.8891 15.8891C14.8576 16.9205 13.4587 17.5 12 17.5C10.5413 17.5 9.14236 16.9205 8.11091 15.8891C7.07946 14.8576 6.5 13.4587 6.5 12ZM12 7.5C10.8065 7.5 9.66193 7.97411 8.81802 8.81802C7.97411 9.66193 7.5 10.8065 7.5 12C7.5 13.1935 7.97411 14.3381 8.81802 15.182C9.66193 16.0259 10.8065 16.5 12 16.5C13.1935 16.5 14.3381 16.0259 15.182 15.182C16.0259 14.3381 16.5 13.1935 16.5 12C16.5 10.8065 16.0259 9.66193 15.182 8.81802C14.3381 7.97411 13.1935 7.5 12 7.5Z" fill="black"/>
<path d="M14.623 2.5H9.377C8.277 2.5 7.419 2.5 6.732 2.556C6.034 2.613 5.467 2.731 4.957 2.99C4.11005 3.42147 3.42147 4.11005 2.99 4.957C2.73 5.467 2.613 6.034 2.556 6.732C2.546 6.85467 2.53767 6.983 2.531 7.117C2.37069 7.20213 2.23657 7.32929 2.14302 7.48485C2.04948 7.6404 2.00004 7.81848 2 8V9.5C2 9.67553 2.04621 9.84797 2.13398 9.99999C2.22175 10.152 2.34798 10.2782 2.5 10.366V13.634C2.34798 13.7218 2.22175 13.848 2.13398 14C2.04621 14.152 2 14.3245 2 14.5V16C1.99985 16.1817 2.04921 16.36 2.14276 16.5157C2.23632 16.6715 2.37054 16.7988 2.531 16.884C2.53767 17.0173 2.546 17.1453 2.556 17.268C2.613 17.966 2.731 18.533 2.99 19.043C3.42147 19.89 4.11005 20.5785 4.957 21.01C5.467 21.27 6.034 21.387 6.732 21.444C7.419 21.5 8.276 21.5 9.377 21.5H14.623C15.723 21.5 16.581 21.5 17.268 21.444C17.966 21.387 18.533 21.269 19.043 21.01C19.89 20.5785 20.5785 19.89 21.01 19.043C21.27 18.533 21.387 17.966 21.444 17.268C21.5 16.581 21.5 15.724 21.5 14.623V9.377C21.5 8.277 21.5 7.419 21.444 6.732C21.387 6.034 21.269 5.467 21.01 4.957C20.5785 4.11005 19.89 3.42147 19.043 2.99C18.533 2.73 17.966 2.613 17.268 2.556C16.581 2.5 15.724 2.5 14.623 2.5ZM3.53 16.848C3.67383 16.7581 3.79242 16.6331 3.87464 16.4848C3.95686 16.3364 4 16.1696 4 16V14.5C4 14.3245 3.95379 14.152 3.86602 14C3.77825 13.848 3.65202 13.7218 3.5 13.634V10.366C3.65202 10.2782 3.77825 10.152 3.86602 9.99999C3.95379 9.84797 4 9.67553 4 9.5V8C4 7.83039 3.95686 7.66358 3.87464 7.51523C3.79242 7.36689 3.67383 7.24189 3.53 7.152C3.53667 7.034 3.54433 6.92133 3.553 6.814C3.605 6.177 3.705 5.757 3.881 5.411C4.2166 4.7522 4.7522 4.2166 5.411 3.881C5.757 3.705 6.177 3.605 6.814 3.553C7.455 3.5 8.272 3.5 9.4 3.5H14.6C15.728 3.5 16.545 3.5 17.186 3.553C17.823 3.605 18.243 3.705 18.589 3.881C19.2478 4.2166 19.7834 4.7522 20.119 5.411C20.295 5.757 20.395 6.177 20.447 6.814C20.5 7.455 20.5 8.272 20.5 9.4V14.6C20.5 15.728 20.5 16.545 20.447 17.186C20.395 17.823 20.295 18.243 20.119 18.589C19.7834 19.2478 19.2478 19.7834 18.589 20.119C18.243 20.295 17.823 20.395 17.187 20.447C16.545 20.5 15.728 20.5 14.6 20.5H9.4C8.272 20.5 7.455 20.5 6.814 20.447C6.177 20.395 5.757 20.295 5.411 20.119C4.7522 19.7834 4.2166 19.2478 3.881 18.589C3.705 18.243 3.605 17.823 3.553 17.187C3.54391 17.0738 3.53658 16.9604 3.531 16.847" fill="black"/>
</svg>
